<svg xmlns="http://www.w3.org/2000/svg" xmlns:xlink="http://www.w3.org/1999/xlink" viewBox="0 0 826.16 131.32"><defs><style>.cls-1{fill:url(#linear-gradient);}.cls-2{fill:url(#linear-gradient-2);}.cls-3{fill:url(#linear-gradient-3);}.cls-4{fill:#fff;}</style><linearGradient id="linear-gradient" x1="-0.08" y1="9.35" x2="127.31" y2="34.09" gradientUnits="userSpaceOnUse"><stop offset="0.31" stop-color="#fff"/><stop offset="0.59" stop-color="#e6e6e6"/><stop offset="0.66" stop-color="#fff"/><stop offset="1" stop-color="#fff"/></linearGradient><linearGradient id="linear-gradient-2" x1="1.34" y1="52.24" x2="143.77" y2="79.9" gradientUnits="userSpaceOnUse"><stop offset="0.31" stop-color="#fff"/><stop offset="0.48" stop-color="#e6e6e6"/><stop offset="0.51" stop-color="#fff"/><stop offset="1" stop-color="#fff"/></linearGradient><linearGradient id="linear-gradient-3" x1="-0.14" y1="94.57" x2="138.44" y2="121.48" gradientUnits="userSpaceOnUse"><stop offset="0.27" stop-color="#fff"/><stop offset="0.43" stop-color="#e6e6e6"/><stop offset="0.5" stop-color="#fff"/><stop offset="1" stop-color="#fff"/></linearGradient></defs><g id="Layer_2" data-name="Layer 2"><g id="Layer_1-2" data-name="Layer 1"><path class="cls-1" d="M140.9,0H91.53a6.92,6.92,0,0,0-6.7,5.2L81.19,19.43a3,3,0,0,1-2.9,2.25H0V46.09H68.67a9.73,9.73,0,0,0,9.23-6.66l4.34-13.1a2.8,2.8,0,0,1,2.66-1.92h56Z"/><path class="cls-2" d="M140.9,42.62H83.44a6.92,6.92,0,0,0-6.7,5.2L73.1,62.05a3,3,0,0,1-2.9,2.25H0V88.71H60.58A9.73,9.73,0,0,0,69.81,82l4.34-13.1A2.81,2.81,0,0,1,76.81,67H140.9Z"/><path class="cls-3" d="M140.9,85.23H75.35a6.91,6.91,0,0,0-6.69,5.2L65,104.66a3,3,0,0,1-2.9,2.26H0v24.4H52.49a9.72,9.72,0,0,0,9.23-6.66l4.34-13.1a2.8,2.8,0,0,1,2.66-1.92H140.9Z"/><path class="cls-4" d="M172.74,83h27.92a17.39,17.39,0,0,0,2.16-.13,16.69,16.69,0,0,0,2.15-.43,6.56,6.56,0,0,0,2-1,9.47,9.47,0,0,0,3.42-4.2h-18.7c-1.51,0-3.06-.06-4.63-.19a18.62,18.62,0,0,1-4.51-.92A12.16,12.16,0,0,1,178.64,74a10.49,10.49,0,0,1-2.89-4.07,21.66,21.66,0,0,1-1.68-9.08,69.72,69.72,0,0,1,1.51-13c.56-2.83,1.16-5.35,1.81-7.54a41,41,0,0,1,2.21-5.88,29,29,0,0,1,2.75-4.63,26.9,26.9,0,0,1,3.49-3.88A28.54,28.54,0,0,1,190,22.59a21.72,21.72,0,0,1,4.45-2.21,25.2,25.2,0,0,1,5.15-1.24,46.66,46.66,0,0,1,6.22-.38h24.09c.87,0,1.73,0,2.61.06a15.27,15.27,0,0,1,2.6.32,11.44,11.44,0,0,1,2.46.81,7.09,7.09,0,0,1,2.1,1.51,6.11,6.11,0,0,1,1.36,2.1,10.37,10.37,0,0,1,.57,2.29,10,10,0,0,1,0,2.32c-.08.77-.18,1.48-.31,2.13L235,62.48h7.92L240,77.3h-8.14a40.08,40.08,0,0,1-2.72,6.55A24.82,24.82,0,0,1,225,89.43a23.26,23.26,0,0,1-9.86,6,42.27,42.27,0,0,1-12.42,1.75H169.94Zm45.2-43.93a6,6,0,0,0,.12-2.1A2.67,2.67,0,0,0,217,35.36a4.2,4.2,0,0,0-1.58-.75,8.15,8.15,0,0,0-1.69-.16h-2.43c-.75,0-1.53,0-2.33.08a12.53,12.53,0,0,0-2.4.4,10.52,10.52,0,0,0-2.35,1A9.68,9.68,0,0,0,202,37.68a8.09,8.09,0,0,0-1,1.21,13.59,13.59,0,0,0-1.16,2,25.13,25.13,0,0,0-1.19,3.13c-.38,1.24-.75,2.74-1.1,4.5a34.46,34.46,0,0,0-.76,6.74,6.81,6.81,0,0,0,1,4.09,5.16,5.16,0,0,0,1.92,1.86,8.35,8.35,0,0,0,2.42.87,15.9,15.9,0,0,0,2.59.27l2.44,0h6.2Z"/><path class="cls-4" d="M295.88,52.77c-.28,1.41-.64,2.94-1.1,4.61a31.87,31.87,0,0,1-1.86,5.07,26.52,26.52,0,0,1-3.06,5,21.6,21.6,0,0,1-4.71,4.45A23.79,23.79,0,0,1,279.24,75a37.73,37.73,0,0,1-6.11,1.59,44.83,44.83,0,0,1-5.78.62c-1.85.07-3.47.11-4.87.11H238.87l2.91-14.77h16.76c1.08,0,2.13,0,3.16-.13a14,14,0,0,0,3-.6,14.41,14.41,0,0,0,2.86-1.26,12.89,12.89,0,0,0,2.75-2.21,16.46,16.46,0,0,0,3.48-5.58,40,40,0,0,0,1.58-5.58l5.57-28.25h21.61ZM256,12.94,258.53,0h21.61l-2.55,12.93Zm26.14,0L284.67,0h21.77l-2.55,12.93Z"/><path class="cls-4" d="M299.14,83h27.91a17.39,17.39,0,0,0,2.16-.13,16.5,16.5,0,0,0,2.16-.43,6.67,6.67,0,0,0,2-1,9.6,9.6,0,0,0,3.42-4.2H318.1c-1.51,0-3.05-.06-4.62-.19a18.52,18.52,0,0,1-4.51-.92A12.16,12.16,0,0,1,305,74a10.49,10.49,0,0,1-2.89-4.07,21.81,21.81,0,0,1-1.69-9.08,69.84,69.84,0,0,1,1.52-13c.56-2.83,1.16-5.35,1.81-7.54A39.8,39.8,0,0,1,306,34.39a29,29,0,0,1,2.74-4.63,27.5,27.5,0,0,1,3.49-3.88,28.6,28.6,0,0,1,4.13-3.29,21.72,21.72,0,0,1,4.45-2.21A25,25,0,0,1,326,19.14a46.55,46.55,0,0,1,6.22-.38h24.09c.86,0,1.73,0,2.6.06a15.38,15.38,0,0,1,2.61.32,11.18,11.18,0,0,1,2.45.81,7,7,0,0,1,2.1,1.51,6.14,6.14,0,0,1,1.37,2.1,10.37,10.37,0,0,1,.57,2.29,10,10,0,0,1,0,2.32c-.08.77-.19,1.48-.31,2.13l-8,40.48q-.6,3-1.3,5.63a42,42,0,0,1-1.64,4.9,26,26,0,0,1-2.26,4.32,22.57,22.57,0,0,1-3.12,3.8,23.14,23.14,0,0,1-9.86,6,42.27,42.27,0,0,1-12.42,1.75H296.34Zm45.2-43.93a6.52,6.52,0,0,0,.12-2.1,2.69,2.69,0,0,0-1.06-1.62,4.17,4.17,0,0,0-1.57-.75,8.25,8.25,0,0,0-1.7-.16h-2.42c-.76,0-1.54,0-2.34.08a12.3,12.3,0,0,0-2.39.4,10.52,10.52,0,0,0-2.35,1,9.94,9.94,0,0,0-2.24,1.78,8.09,8.09,0,0,0-1,1.21,14.52,14.52,0,0,0-1.16,2A25.25,25.25,0,0,0,325,44.07a41.35,41.35,0,0,0-1.1,4.5q-1.51,7.65.38,10.08a5.36,5.36,0,0,0,1.94,1.8,8.1,8.1,0,0,0,2.41.87,15.9,15.9,0,0,0,2.59.27c.88,0,1.69,0,2.45,0h6.2Z"/><path class="cls-4" d="M382.71,0h21.62L389.09,77.3H367.47Z"/><path class="cls-4" d="M480.57,75.3c1.15,0,2.16,0,3,0a6.67,6.67,0,0,0,2.13-.38,6.27,6.27,0,0,0,2.47-1.61,4.46,4.46,0,0,0,.91-1.89l0-.16a4.45,4.45,0,0,0-.22-2.16,6.55,6.55,0,0,0-1.07-1.94c-2.7-1.08-5.35-2.17-8-3.29s-5.23-2.24-7.87-3.39a23.06,23.06,0,0,1-6.48-3.51,12.1,12.1,0,0,1-3.89-4.9,17.18,17.18,0,0,1-1.28-5.66,23.8,23.8,0,0,1,.42-5.82,33.79,33.79,0,0,1,1.75-5.88c.79-2,1.62-3.95,2.52-5.93a17,17,0,0,1,3.38-4.17,23.12,23.12,0,0,1,4.48-3.16,22.64,22.64,0,0,1,5-2,19.09,19.09,0,0,1,4.87-.68h34.55l-3,15H487.08a6.69,6.69,0,0,0-2.41.38,4.75,4.75,0,0,0-1.6,1,4,4,0,0,0-1,1.4,7.69,7.69,0,0,0-.52,1.67,3.1,3.1,0,0,0,.09,1.46,1.54,1.54,0,0,0,.76,1.07,14.5,14.5,0,0,0,3.78,2.43q2.31,1.08,5.06,2.07c1.82.67,3.71,1.33,5.64,2a51.53,51.53,0,0,1,5.47,2.21,25.27,25.27,0,0,1,4.53,2.72,9.78,9.78,0,0,1,2.92,3.51,13.46,13.46,0,0,1,1.23,4.12,24.16,24.16,0,0,1,.2,5.31,38.9,38.9,0,0,1-.58,4c-.13.65-.28,1.29-.44,1.94a33,33,0,0,1-2.17,6.09,29.62,29.62,0,0,1-3.42,5.58,22.64,22.64,0,0,1-4.72,4.55,14.32,14.32,0,0,1-5.34,2.35,28.35,28.35,0,0,1-4.92.46H445.53c-1.26,0-2.63-.08-4.11-.22a21.44,21.44,0,0,1-4.48-.94,18.2,18.2,0,0,1-4.33-2.1,13,13,0,0,1-3.61-3.7,12.7,12.7,0,0,1-1.86-4.36,24.68,24.68,0,0,1-.56-5.07A36.41,36.41,0,0,1,427,68q.43-3,1.1-6.39l3-15.09h22.1l-2.89,14.66a41.63,41.63,0,0,0-.65,4.29,20.88,20.88,0,0,0-.1,2.94,10.12,10.12,0,0,0,.23,1.85c.11.45.21.8.3,1.06a5,5,0,0,0,1.42,2,7.68,7.68,0,0,0,2,1.21,8.15,8.15,0,0,0,2.22.62,16.13,16.13,0,0,0,2.29.16ZM436,109.64l2.54-12.88h21.61l-2.54,12.88Zm26.14,0,2.54-12.88h21.61l-2.54,12.88Z"/><path class="cls-4" d="M513.81,77.3l2.92-14.77H541a18.64,18.64,0,0,0,4.84-.75,9.88,9.88,0,0,0,4.68-3.24,16.71,16.71,0,0,0,1.65-2.91,29.2,29.2,0,0,0,2.14-7.28,38.35,38.35,0,0,0,.59-4.09,20.68,20.68,0,0,0,0-3.61,8.51,8.51,0,0,0-2.32-5c-1.3-1.4-3.79-2.1-7.45-2.1H523.62l2.91-14.77H558a33.16,33.16,0,0,1,9.5,1.26,14.28,14.28,0,0,1,9.6,10,23.9,23.9,0,0,1,.79,6,39.44,39.44,0,0,1-.48,6.42q-.51,3.28-1.13,6.41-.67,3.39-1.5,6.39T573,61a23.77,23.77,0,0,1-6.16,9.38A23,23,0,0,1,561.75,74a28,28,0,0,1-5.13,2.1,26.1,26.1,0,0,1-4.84.94c-1.56.15-2.95.22-4.17.22Z"/><path class="cls-4" d="M577.58,83H605.5a17.39,17.39,0,0,0,2.16-.13,16.5,16.5,0,0,0,2.16-.43,6.67,6.67,0,0,0,2-1,9.6,9.6,0,0,0,3.42-4.2H596.55c-1.51,0-3-.06-4.62-.19a18.52,18.52,0,0,1-4.51-.92A12.16,12.16,0,0,1,583.49,74a10.49,10.49,0,0,1-2.89-4.07,21.81,21.81,0,0,1-1.69-9.08,69.84,69.84,0,0,1,1.52-13c.56-2.83,1.16-5.35,1.81-7.54a39.8,39.8,0,0,1,2.21-5.88,29,29,0,0,1,2.74-4.63,27.5,27.5,0,0,1,3.49-3.88,29.09,29.09,0,0,1,4.12-3.29,22.06,22.06,0,0,1,4.46-2.21,25,25,0,0,1,5.15-1.24,46.55,46.55,0,0,1,6.22-.38h24.09c.86,0,1.73,0,2.6.06a15.38,15.38,0,0,1,2.61.32,11.18,11.18,0,0,1,2.45.81,7.09,7.09,0,0,1,2.1,1.51,6.14,6.14,0,0,1,1.37,2.1,10.37,10.37,0,0,1,.57,2.29,10,10,0,0,1,0,2.32c-.08.77-.19,1.48-.32,2.13l-6.34,32.18h7.92L644.79,77.3h-8.14a39.22,39.22,0,0,1-2.72,6.55,24.52,24.52,0,0,1-4.09,5.58,23.2,23.2,0,0,1-9.86,6,42.27,42.27,0,0,1-12.42,1.75H574.79Zm45.21-43.93a6.52,6.52,0,0,0,.12-2.1,2.69,2.69,0,0,0-1.06-1.62,4.13,4.13,0,0,0-1.58-.75,8.09,8.09,0,0,0-1.69-.16h-2.42c-.76,0-1.54,0-2.34.08a12.3,12.3,0,0,0-2.39.4,10.52,10.52,0,0,0-2.35,1,9.72,9.72,0,0,0-2.24,1.78,8.09,8.09,0,0,0-1,1.21,14.52,14.52,0,0,0-1.16,2,25.25,25.25,0,0,0-1.18,3.13,41.35,41.35,0,0,0-1.1,4.5,35.35,35.35,0,0,0-.77,6.74,6.88,6.88,0,0,0,1,4.09,5.12,5.12,0,0,0,1.93,1.86,8.39,8.39,0,0,0,2.41.87,15.9,15.9,0,0,0,2.59.27l2.45,0h6.2Z"/><path class="cls-4" d="M646.3,62.53h14.45l0-.11c-.49-2.58-1-5.11-1.47-7.57s-.87-4.86-1.17-7.2a55.09,55.09,0,0,1-.44-6.79,25.36,25.36,0,0,1,.49-4.9c.09-.47.2-.94.33-1.4a19.68,19.68,0,0,1,2.47-5.72,20.84,20.84,0,0,1,4.68-5.12,19.93,19.93,0,0,1,4-2.64,21.78,21.78,0,0,1,3.82-1.46,20,20,0,0,1,3.46-.61c1.1-.09,2.11-.14,3-.14h24.79c.9,0,1.89.05,3,.14a16.07,16.07,0,0,1,3.24.61,13.76,13.76,0,0,1,3.22,1.46,12.33,12.33,0,0,1,3,2.64,12.57,12.57,0,0,1,2.65,5.15,15.64,15.64,0,0,1,.28,5.69l-.27,1.4a29.55,29.55,0,0,1-1.45,4.9,74.3,74.3,0,0,1-3.12,6.79c-1.22,2.34-2.55,4.74-4,7.2s-2.94,5-4.45,7.57l-.08.11h14.45L718.2,77.3H643.39Zm33.43-26.3c-.13.64-.25,1.56-.38,2.75l4.36,23.55L697.35,39c.34-1.19.58-2.11.71-2.75l-1.4-1.94H681.89Z"/><path class="cls-4" d="M719.34,62.53h9.59l8.62-43.71h21.29l-8.62,43.71h12.34l8.62-43.71h21.45L784,62.53h9.16a4.73,4.73,0,0,0,1.43-.3,3.2,3.2,0,0,0,1.31-.72,4,4,0,0,0,.51-1.27c.15-.56.27-1.09.37-1.59l7.85-39.83h21.51L816.68,66.9c-.12.61-.26,1.24-.42,1.88a16.2,16.2,0,0,1-.67,2,11.47,11.47,0,0,1-1,2A7.57,7.57,0,0,1,813,74.55a8.76,8.76,0,0,1-4.67,2.37c-.85.15-1.67.24-2.46.3s-1.57.08-2.36.08h-87Z"/></g></g></svg>